<?xml version="1.0" encoding="UTF-8" standalone="no"?>
<!DOCTYPE svg PUBLIC "-//W3C//DTD SVG 1.1//EN"
 "http://www.w3.org/Graphics/SVG/1.1/DTD/svg11.dtd">
<!-- Generated by graphviz version 14.1.3 (20260303.0454)
 -->
<!-- Pages: 1 -->
<svg width="744pt" height="156pt"
 viewBox="0.00 0.00 744.00 156.00" xmlns="http://www.w3.org/2000/svg" xmlns:xlink="http://www.w3.org/1999/xlink">
<g id="graph0" class="graph" transform="scale(1 1) rotate(0) translate(4 152)">
<polygon fill="white" stroke="none" points="-4,4 -4,-152 740.25,-152 740.25,4 -4,4"/>
<!-- 2352718446080 -->
<g id="node1" class="node">
<title>2352718446080</title>
<polygon fill="none" stroke="black" points="2.25,-111.5 2.25,-147.5 87.5,-147.5 87.5,-111.5 2.25,-111.5"/>
<text xml:space="preserve" text-anchor="middle" x="13.25" y="-124.7" font-family="Times New Roman,serif" font-size="14.00">a</text>
<polyline fill="none" stroke="black" points="24.25,-112 24.25,-147.5"/>
<text xml:space="preserve" text-anchor="middle" x="55.88" y="-124.7" font-family="Times New Roman,serif" font-size="14.00">data: 2.0</text>
</g>
<!-- 2352718233104* -->
<g id="node3" class="node">
<title>2352718233104*</title>
<ellipse fill="none" stroke="black" cx="152.75" cy="-101.5" rx="27" ry="18"/>
<text xml:space="preserve" text-anchor="middle" x="152.75" y="-96.45" font-family="Times New Roman,serif" font-size="14.00">*</text>
</g>
<!-- 2352718446080&#45;&gt;2352718233104* -->
<g id="edge9" class="edge">
<title>2352718446080&#45;&gt;2352718233104*</title>
<path fill="none" stroke="black" d="M87.72,-118.43C97.15,-115.94 107.07,-113.32 116.21,-110.9"/>
<polygon fill="black" stroke="black" points="117.04,-114.3 125.81,-108.36 115.25,-107.53 117.04,-114.3"/>
</g>
<!-- 2352718233104 -->
<g id="node2" class="node">
<title>2352718233104</title>
<polygon fill="none" stroke="black" points="215.75,-83.5 215.75,-119.5 306.25,-119.5 306.25,-83.5 215.75,-83.5"/>
<text xml:space="preserve" text-anchor="middle" x="227.12" y="-96.7" font-family="Times New Roman,serif" font-size="14.00">b</text>
<polyline fill="none" stroke="black" points="238.5,-84 238.5,-119.5"/>
<text xml:space="preserve" text-anchor="middle" x="272.38" y="-96.7" font-family="Times New Roman,serif" font-size="14.00">data: &#45;6.0</text>
</g>
<!-- 2352708415664+ -->
<g id="node6" class="node">
<title>2352708415664+</title>
<ellipse fill="none" stroke="black" cx="369.25" cy="-73.5" rx="27" ry="18"/>
<text xml:space="preserve" text-anchor="middle" x="369.25" y="-68.45" font-family="Times New Roman,serif" font-size="14.00">+</text>
</g>
<!-- 2352718233104&#45;&gt;2352708415664+ -->
<g id="edge8" class="edge">
<title>2352718233104&#45;&gt;2352708415664+</title>
<path fill="none" stroke="black" d="M306.44,-89.79C315.2,-87.48 324.28,-85.09 332.7,-82.87"/>
<polygon fill="black" stroke="black" points="333.43,-86.3 342.21,-80.36 331.65,-79.53 333.43,-86.3"/>
</g>
<!-- 2352718233104*&#45;&gt;2352718233104 -->
<g id="edge1" class="edge">
<title>2352718233104*&#45;&gt;2352718233104</title>
<path fill="none" stroke="black" d="M180.01,-101.5C187.37,-101.5 195.65,-101.5 204.03,-101.5"/>
<polygon fill="black" stroke="black" points="203.92,-105 213.92,-101.5 203.92,-98 203.92,-105"/>
</g>
<!-- 2352719088208 -->
<g id="node4" class="node">
<title>2352719088208</title>
<polygon fill="none" stroke="black" points="0,-56.5 0,-92.5 89.75,-92.5 89.75,-56.5 0,-56.5"/>
<text xml:space="preserve" text-anchor="middle" x="11" y="-69.7" font-family="Times New Roman,serif" font-size="14.00">c</text>
<polyline fill="none" stroke="black" points="22,-57 22,-92.5"/>
<text xml:space="preserve" text-anchor="middle" x="55.88" y="-69.7" font-family="Times New Roman,serif" font-size="14.00">data: &#45;3.0</text>
</g>
<!-- 2352719088208&#45;&gt;2352718233104* -->
<g id="edge4" class="edge">
<title>2352719088208&#45;&gt;2352718233104*</title>
<path fill="none" stroke="black" d="M90.16,-85.79C98.71,-87.97 107.57,-90.23 115.82,-92.34"/>
<polygon fill="black" stroke="black" points="114.94,-95.73 125.5,-94.81 116.67,-88.94 114.94,-95.73"/>
</g>
<!-- 2352708415664 -->
<g id="node5" class="node">
<title>2352708415664</title>
<polygon fill="none" stroke="black" points="432.25,-55.5 432.25,-91.5 518.25,-91.5 518.25,-55.5 432.25,-55.5"/>
<text xml:space="preserve" text-anchor="middle" x="443.62" y="-68.7" font-family="Times New Roman,serif" font-size="14.00">d</text>
<polyline fill="none" stroke="black" points="455,-56 455,-91.5"/>
<text xml:space="preserve" text-anchor="middle" x="486.62" y="-68.7" font-family="Times New Roman,serif" font-size="14.00">data: 4.0</text>
</g>
<!-- 2352716486848* -->
<g id="node8" class="node">
<title>2352716486848*</title>
<ellipse fill="none" stroke="black" cx="581.25" cy="-45.5" rx="27" ry="18"/>
<text xml:space="preserve" text-anchor="middle" x="581.25" y="-40.45" font-family="Times New Roman,serif" font-size="14.00">*</text>
</g>
<!-- 2352708415664&#45;&gt;2352716486848* -->
<g id="edge7" class="edge">
<title>2352708415664&#45;&gt;2352716486848*</title>
<path fill="none" stroke="black" d="M518.55,-62.11C527.21,-59.78 536.24,-57.35 544.64,-55.09"/>
<polygon fill="black" stroke="black" points="545.4,-58.51 554.14,-52.53 543.58,-51.75 545.4,-58.51"/>
</g>
<!-- 2352708415664+&#45;&gt;2352708415664 -->
<g id="edge2" class="edge">
<title>2352708415664+&#45;&gt;2352708415664</title>
<path fill="none" stroke="black" d="M396.49,-73.5C403.86,-73.5 412.14,-73.5 420.49,-73.5"/>
<polygon fill="black" stroke="black" points="420.31,-77 430.31,-73.5 420.31,-70 420.31,-77"/>
</g>
<!-- 2352716486848 -->
<g id="node7" class="node">
<title>2352716486848</title>
<polygon fill="none" stroke="black" points="644.25,-27.5 644.25,-63.5 736.25,-63.5 736.25,-27.5 644.25,-27.5"/>
<text xml:space="preserve" text-anchor="middle" x="655.25" y="-40.7" font-family="Times New Roman,serif" font-size="14.00">e</text>
<polyline fill="none" stroke="black" points="666.25,-28 666.25,-63.5"/>
<text xml:space="preserve" text-anchor="middle" x="701.25" y="-40.7" font-family="Times New Roman,serif" font-size="14.00">data: 20.0</text>
</g>
<!-- 2352716486848*&#45;&gt;2352716486848 -->
<g id="edge3" class="edge">
<title>2352716486848*&#45;&gt;2352716486848</title>
<path fill="none" stroke="black" d="M608.7,-45.5C616.02,-45.5 624.25,-45.5 632.59,-45.5"/>
<polygon fill="black" stroke="black" points="632.43,-49 642.43,-45.5 632.43,-42 632.43,-49"/>
</g>
<!-- 2352719088848 -->
<g id="node9" class="node">
<title>2352719088848</title>
<polygon fill="none" stroke="black" points="215.75,-28.5 215.75,-64.5 306.25,-64.5 306.25,-28.5 215.75,-28.5"/>
<text xml:space="preserve" text-anchor="middle" x="226" y="-41.7" font-family="Times New Roman,serif" font-size="14.00">f</text>
<polyline fill="none" stroke="black" points="236.25,-29 236.25,-64.5"/>
<text xml:space="preserve" text-anchor="middle" x="271.25" y="-41.7" font-family="Times New Roman,serif" font-size="14.00">data: 10.0</text>
</g>
<!-- 2352719088848&#45;&gt;2352708415664+ -->
<g id="edge6" class="edge">
<title>2352719088848&#45;&gt;2352708415664+</title>
<path fill="none" stroke="black" d="M306.44,-57.79C315.2,-60.02 324.28,-62.33 332.7,-64.47"/>
<polygon fill="black" stroke="black" points="331.65,-67.81 342.21,-66.88 333.38,-61.03 331.65,-67.81"/>
</g>
<!-- 2352718232800 -->
<g id="node10" class="node">
<title>2352718232800</title>
<polygon fill="none" stroke="black" points="437.5,-0.5 437.5,-36.5 513,-36.5 513,-0.5 437.5,-0.5"/>
<text xml:space="preserve" text-anchor="middle" x="448.88" y="-13.7" font-family="Times New Roman,serif" font-size="14.00">g</text>
<polyline fill="none" stroke="black" points="460.25,-1 460.25,-36.5"/>
<text xml:space="preserve" text-anchor="middle" x="486.62" y="-13.7" font-family="Times New Roman,serif" font-size="14.00">data: 5</text>
</g>
<!-- 2352718232800&#45;&gt;2352716486848* -->
<g id="edge5" class="edge">
<title>2352718232800&#45;&gt;2352716486848*</title>
<path fill="none" stroke="black" d="M513.21,-28.1C523.47,-30.76 534.6,-33.65 544.77,-36.29"/>
<polygon fill="black" stroke="black" points="543.75,-39.64 554.31,-38.76 545.51,-32.86 543.75,-39.64"/>
</g>
</g>
</svg>
